{"accessors" : [{"bufferView" : 0, "byteOffset" : 0, "componentType" : 5123, "count" : 27066, "type" : "SCALAR", "max" : [26737], "min" : [0]}, {"bufferView" : 1, "byteOffset" : 0, "componentType" : 5126, "count" : 26738, "type" : "VEC3", "max" : [19.988590240478516, 20, 19.99995231628418], "min" : [-20, -25, -19.997146606445312], "name" : "POSITION"}, {"bufferView" : 1, "byteOffset" : 12, "componentType" : 5126, "count" : 26738, "type" : "VEC3", "max" : [1.0000044107437134, 1.0000044107437134, 0.999860942363739], "min" : [-0.9994338750839233, -1.0000044107437134, -0.9998617768287659], "name" : "NORMAL"}], "asset" : {"generator" : "Aspose.3D 22.1", "version" : "2.0"}, "buffers" : [{"uri" : "data:application/octet-stream;base64,", "byteLength" : 703724}], "bufferViews" : [{"buffer" : 0, "byteOffset" : 0, "byteLength" : 54132, "target" : 34963}, {"buffer" : 0, "byteOffset" : 54136, "byteLength" : 649584, "byteStride" : 24, "target" : 34962}], "meshes" : [{"primitives" : [{"attributes" : {"POSITION" : 1, "NORMAL" : 2}, "indices" : 0, "mode" : 4}], "name" : ""}], "nodes" : [{"mesh" : 0, "name" : ""}], "scene" : 0, "scenes" : [{"nodes" : [0]}]}