{
    "asset" : {
        "generator" : "Khronos glTF Blender I/O v1.8.19",
        "version" : "2.0"
    },
    "scene" : 0,
    "scenes" : [
        {
            "name" : "Scene",
            "nodes" : [
                0,
                1,
                2,
                3,
                4,
                5,
                6
            ]
        }
    ],
    "nodes" : [
        {
            "mesh" : 0,
            "name" : "Head",
            "rotation" : [
                0,
                0,
                0.2120324671268463,
                0.9772626757621765
            ],
            "scale" : [
                0.5433521866798401,
                0.46970972418785095,
                0.6265214681625366
            ],
            "translation" : [
                -0.1710822880268097,
                1.7340128421783447,
                0
            ]
        },
        {
            "mesh" : 1,
            "name" : "body",
            "rotation" : [
                0,
                0,
                -0.0024123042821884155,
                0.9999971389770508
            ],
            "scale" : [
                0.40559133887290955,
                0.6496414542198181,
                0.5816407203674316
            ],
            "translation" : [
                0.02785741351544857,
                0.912477970123291,
                0
            ]
        },
        {
            "mesh" : 2,
            "name" : "wheel",
            "rotation" : [
                -0.7010859251022339,
                -0.09207901358604431,
                0.09207902103662491,
                0.7010859847068787
            ],
            "scale" : [
                0.17577345669269562,
                0.17577345669269562,
                0.17577345669269562
            ],
            "translation" : [
                0,
                0.22278912365436554,
                0
            ]
        },
        {
            "mesh" : 3,
            "name" : "Leg",
            "rotation" : [
                0,
                0,
                -0.02682483196258545,
                0.9996402263641357
            ],
            "scale" : [
                -0.2330639362335205,
                -0.2330639362335205,
                -0.10670632123947144
            ],
            "translation" : [
                0.0036605382338166237,
                0.2937384247779846,
                0
            ]
        },
        {
            "mesh" : 4,
            "name" : "Face",
            "rotation" : [
                0,
                0,
                0.2120324671268463,
                0.9772626757621765
            ],
            "scale" : [
                0.4113902151584625,
                0.355633020401001,
                0.47436049580574036
            ],
            "translation" : [
                -0.15066173672676086,
                1.770963191986084,
                0
            ]
        },
        {
            "mesh" : 5,
            "name" : "R eye",
            "rotation" : [
                0.1755722016096115,
                0.007080895826220512,
                0.21567174792289734,
                0.9605258703231812
            ],
            "scale" : [
                0.07170875370502472,
                0.07152462750673294,
                0.047248780727386475
            ],
            "translation" : [
                0.19178293645381927,
                1.9995931386947632,
                0.21906688809394836
            ]
        },
        {
            "mesh" : 6,
            "name" : "Mouth",
            "rotation" : [
                0,
                0,
                0.23531335592269897,
                0.971919596195221
            ],
            "scale" : [
                0.14095906913280487,
                0.08449973165988922,
                0.3385690450668335
            ],
            "translation" : [
                0.1799243837594986,
                1.7375894784927368,
                -0.007970488630235195
            ]
        }
    ],
    "animations" : [
        {
            "channels" : [
                {
                    "sampler" : 0,
                    "target" : {
                        "node" : 6,
                        "path" : "scale"
                    }
                },
                {
                    "sampler" : 1,
                    "target" : {
                        "node" : 6,
                        "path" : "translation"
                    }
                },
                {
                    "sampler" : 2,
                    "target" : {
                        "node" : 6,
                        "path" : "rotation"
                    }
                }
            ],
            "name" : "speak",
            "samplers" : [
                {
                    "input" : 21,
                    "interpolation" : "LINEAR",
                    "output" : 22
                },
                {
                    "input" : 23,
                    "interpolation" : "STEP",
                    "output" : 24
                },
                {
                    "input" : 23,
                    "interpolation" : "STEP",
                    "output" : 25
                }
            ]
        }
    ],
    "materials" : [
        {
            "doubleSided" : true,
            "name" : "Silver",
            "pbrMetallicRoughness" : {
                "baseColorTexture" : {
                    "index" : 0
                },
                "metallicFactor" : 0,
                "roughnessFactor" : 0.5
            }
        },
        {
            "doubleSided" : true,
            "name" : "Black",
            "pbrMetallicRoughness" : {
                "metallicFactor" : 0,
                "roughnessFactor" : 0.5
            }
        },
        {
            "doubleSided" : true,
            "name" : "Screen",
            "pbrMetallicRoughness" : {
                "baseColorTexture" : {
                    "index" : 1
                },
                "metallicFactor" : 0,
                "roughnessFactor" : 0.5
            }
        },
        {
            "doubleSided" : true,
            "name" : "White",
            "pbrMetallicRoughness" : {
                "baseColorTexture" : {
                    "index" : 2
                },
                "metallicFactor" : 0,
                "roughnessFactor" : 0.5
            }
        }
    ],
    "meshes" : [
        {
            "name" : "Cube",
            "primitives" : [
                {
                    "attributes" : {
                        "POSITION" : 0,
                        "TEXCOORD_0" : 1
                    },
                    "indices" : 2,
                    "material" : 0
                }
            ]
        },
        {
            "name" : "Cube.001",
            "primitives" : [
                {
                    "attributes" : {
                        "POSITION" : 3,
                        "TEXCOORD_0" : 4
                    },
                    "indices" : 5,
                    "material" : 0
                }
            ]
        },
        {
            "name" : "Torus.001",
            "primitives" : [
                {
                    "attributes" : {
                        "POSITION" : 6,
                        "TEXCOORD_0" : 7
                    },
                    "indices" : 8,
                    "material" : 1
                }
            ]
        },
        {
            "name" : "Cube.002",
            "primitives" : [
                {
                    "attributes" : {
                        "POSITION" : 9,
                        "TEXCOORD_0" : 10
                    },
                    "indices" : 11,
                    "material" : 0
                }
            ]
        },
        {
            "name" : "Cube.004",
            "primitives" : [
                {
                    "attributes" : {
                        "POSITION" : 12,
                        "TEXCOORD_0" : 13
                    },
                    "indices" : 14,
                    "material" : 2
                }
            ]
        },
        {
            "name" : "Cube.006",
            "primitives" : [
                {
                    "attributes" : {
                        "POSITION" : 15,
                        "TEXCOORD_0" : 16
                    },
                    "indices" : 17,
                    "material" : 1
                }
            ]
        },
        {
            "name" : "Torus.003",
            "primitives" : [
                {
                    "attributes" : {
                        "POSITION" : 18,
                        "TEXCOORD_0" : 19
                    },
                    "indices" : 20,
                    "material" : 3
                }
            ]
        }
    ],
    "textures" : [
        {
            "sampler" : 0,
            "source" : 0
        },
        {
            "sampler" : 0,
            "source" : 1
        },
        {
            "sampler" : 0,
            "source" : 2
        }
    ],
    "images" : [
        {
            "bufferView" : 3,
            "mimeType" : "image/jpeg",
            "name" : "silver"
        },
        {
            "bufferView" : 16,
            "mimeType" : "image/jpeg",
            "name" : "blue"
        },
        {
            "bufferView" : 23,
            "mimeType" : "image/jpeg",
            "name" : "white"
        }
    ],
    "accessors" : [
        {
            "bufferView" : 0,
            "componentType" : 5126,
            "count" : 2272,
            "max" : [
                0.849321722984314,
                1.0474910736083984,
                1.2613641023635864
            ],
            "min" : [
                -1.2755320072174072,
                -3.1807098388671875,
                -1.2709664106369019
            ],
            "type" : "VEC3"
        },
        {
            "bufferView" : 1,
            "componentType" : 5126,
            "count" : 2272,
            "type" : "VEC2"
        },
        {
            "bufferView" : 2,
            "componentType" : 5123,
            "count" : 9522,
            "type" : "SCALAR"
        },
        {
            "bufferView" : 4,
            "componentType" : 5126,
            "count" : 758,
            "max" : [
                1.0000001192092896,
                0.9999999403953552,
                1
            ],
            "min" : [
                -1.0000001192092896,
                -1.0000001192092896,
                -1
            ],
            "type" : "VEC3"
        },
        {
            "bufferView" : 5,
            "componentType" : 5126,
            "count" : 758,
            "type" : "VEC2"
        },
        {
            "bufferView" : 6,
            "componentType" : 5123,
            "count" : 3126,
            "type" : "SCALAR"
        },
        {
            "bufferView" : 7,
            "componentType" : 5126,
            "count" : 530,
            "max" : [
                1.2480430603027344,
                0.25,
                0.6202906966209412
            ],
            "min" : [
                -1.25,
                -0.25,
                -1.250000238418579
            ],
            "type" : "VEC3"
        },
        {
            "bufferView" : 8,
            "componentType" : 5126,
            "count" : 530,
            "type" : "VEC2"
        },
        {
            "bufferView" : 9,
            "componentType" : 5123,
            "count" : 2028,
            "type" : "SCALAR"
        },
        {
            "bufferView" : 10,
            "componentType" : 5126,
            "count" : 511,
            "max" : [
                1.1658071279525757,
                0.5850774049758911,
                1.0498743057250977
            ],
            "min" : [
                -1.1691582202911377,
                -0.08098196238279343,
                -1.0498778820037842
            ],
            "type" : "VEC3"
        },
        {
            "bufferView" : 11,
            "componentType" : 5126,
            "count" : 511,
            "type" : "VEC2"
        },
        {
            "bufferView" : 12,
            "componentType" : 5123,
            "count" : 2214,
            "type" : "SCALAR"
        },
        {
            "bufferView" : 13,
            "componentType" : 5126,
            "count" : 888,
            "max" : [
                1,
                0.9975507259368896,
                1.2835651636123657
            ],
            "min" : [
                -1,
                -0.9843502044677734,
                -1.2935000658035278
            ],
            "type" : "VEC3"
        },
        {
            "bufferView" : 14,
            "componentType" : 5126,
            "count" : 888,
            "type" : "VEC2"
        },
        {
            "bufferView" : 15,
            "componentType" : 5123,
            "count" : 3486,
            "type" : "SCALAR"
        },
        {
            "bufferView" : 17,
            "componentType" : 5126,
            "count" : 458,
            "max" : [
                1.0000016689300537,
                0.8866680860519409,
                0.8866661787033081
            ],
            "min" : [
                -0.3702135682106018,
                -3.0599865913391113,
                -10.43189811706543
            ],
            "type" : "VEC3"
        },
        {
            "bufferView" : 18,
            "componentType" : 5126,
            "count" : 458,
            "type" : "VEC2"
        },
        {
            "bufferView" : 19,
            "componentType" : 5123,
            "count" : 1758,
            "type" : "SCALAR"
        },
        {
            "bufferView" : 20,
            "componentType" : 5126,
            "count" : 517,
            "max" : [
                1.2500007152557373,
                0.24999980628490448,
                0.8844411969184875
            ],
            "min" : [
                0.876083493232727,
                -0.2500001788139343,
                -0.884441077709198
            ],
            "type" : "VEC3"
        },
        {
            "bufferView" : 21,
            "componentType" : 5126,
            "count" : 517,
            "type" : "VEC2"
        },
        {
            "bufferView" : 22,
            "componentType" : 5123,
            "count" : 2286,
            "type" : "SCALAR"
        },
        {
            "bufferView" : 24,
            "componentType" : 5126,
            "count" : 11,
            "max" : [
                0.4166666666666667
            ],
            "min" : [
                0
            ],
            "type" : "SCALAR"
        },
        {
            "bufferView" : 25,
            "componentType" : 5126,
            "count" : 11,
            "type" : "VEC3"
        },
        {
            "bufferView" : 26,
            "componentType" : 5126,
            "count" : 1,
            "max" : [
                0.20833333333333334
            ],
            "min" : [
                0.20833333333333334
            ],
            "type" : "SCALAR"
        },
        {
            "bufferView" : 27,
            "componentType" : 5126,
            "count" : 1,
            "type" : "VEC3"
        },
        {
            "bufferView" : 28,
            "componentType" : 5126,
            "count" : 1,
            "type" : "VEC4"
        }
    ],
    "bufferViews" : [
        {
            "buffer" : 0,
            "byteLength" : 27264,
            "byteOffset" : 0
        },
        {
            "buffer" : 0,
            "byteLength" : 18176,
            "byteOffset" : 27264
        },
        {
            "buffer" : 0,
            "byteLength" : 19044,
            "byteOffset" : 45440
        },
        {
            "buffer" : 0,
            "byteLength" : 1665,
            "byteOffset" : 64484
        },
        {
            "buffer" : 0,
            "byteLength" : 9096,
            "byteOffset" : 66152
        },
        {
            "buffer" : 0,
            "byteLength" : 6064,
            "byteOffset" : 75248
        },
        {
            "buffer" : 0,
            "byteLength" : 6252,
            "byteOffset" : 81312
        },
        {
            "buffer" : 0,
            "byteLength" : 6360,
            "byteOffset" : 87564
        },
        {
            "buffer" : 0,
            "byteLength" : 4240,
            "byteOffset" : 93924
        },
        {
            "buffer" : 0,
            "byteLength" : 4056,
            "byteOffset" : 98164
        },
        {
            "buffer" : 0,
            "byteLength" : 6132,
            "byteOffset" : 102220
        },
        {
            "buffer" : 0,
            "byteLength" : 4088,
            "byteOffset" : 108352
        },
        {
            "buffer" : 0,
            "byteLength" : 4428,
            "byteOffset" : 112440
        },
        {
            "buffer" : 0,
            "byteLength" : 10656,
            "byteOffset" : 116868
        },
        {
            "buffer" : 0,
            "byteLength" : 7104,
            "byteOffset" : 127524
        },
        {
            "buffer" : 0,
            "byteLength" : 6972,
            "byteOffset" : 134628
        },
        {
            "buffer" : 0,
            "byteLength" : 1668,
            "byteOffset" : 141600
        },
        {
            "buffer" : 0,
            "byteLength" : 5496,
            "byteOffset" : 143268
        },
        {
            "buffer" : 0,
            "byteLength" : 3664,
            "byteOffset" : 148764
        },
        {
            "buffer" : 0,
            "byteLength" : 3516,
            "byteOffset" : 152428
        },
        {
            "buffer" : 0,
            "byteLength" : 6204,
            "byteOffset" : 155944
        },
        {
            "buffer" : 0,
            "byteLength" : 4136,
            "byteOffset" : 162148
        },
        {
            "buffer" : 0,
            "byteLength" : 4572,
            "byteOffset" : 166284
        },
        {
            "buffer" : 0,
            "byteLength" : 1665,
            "byteOffset" : 170856
        },
        {
            "buffer" : 0,
            "byteLength" : 44,
            "byteOffset" : 172524
        },
        {
            "buffer" : 0,
            "byteLength" : 132,
            "byteOffset" : 172568
        },
        {
            "buffer" : 0,
            "byteLength" : 4,
            "byteOffset" : 172700
        },
        {
            "buffer" : 0,
            "byteLength" : 12,
            "byteOffset" : 172704
        },
        {
            "buffer" : 0,
            "byteLength" : 16,
            "byteOffset" : 172716
        }
    ],
    "samplers" : [
        {
            "magFilter" : 9729,
            "minFilter" : 9987
        }
    ],
    "buffers" : [
        {
            "byteLength" : 172732,
            "uri" : "data:application/octet-stream;base64,"
        }
    ]
}
