{
    "asset" : {
        "generator" : "Khronos glTF Blender I/O v1.8.19",
        "version" : "2.0"
    },
    "scene" : 0,
    "scenes" : [
        {
            "name" : "Scene",
            "nodes" : [
                0,
                1,
                2,
                3,
                4,
                5,
                6,
                7
            ]
        }
    ],
    "nodes" : [
        {
            "mesh" : 0,
            "name" : "Head",
            "rotation" : [
                0,
                0,
                0.2120325118303299,
                0.9772626161575317
            ],
            "scale" : [
                0.5433522462844849,
                0.46970975399017334,
                0.6265214681625366
            ],
            "translation" : [
                -0.18811671435832977,
                1.7340128421783447,
                0
            ]
        },
        {
            "mesh" : 1,
            "name" : "body",
            "rotation" : [
                0,
                0,
                -0.002412304515019059,
                0.999997079372406
            ],
            "scale" : [
                0.40559136867523193,
                0.6496414542198181,
                0.5816407203674316
            ],
            "translation" : [
                0.010822981595993042,
                0.912477970123291,
                0
            ]
        },
        {
            "mesh" : 2,
            "name" : "wheel",
            "rotation" : [
                -0.7010859847068787,
                -0.09207901358604431,
                0.0920790433883667,
                0.7010858654975891
            ],
            "scale" : [
                0.17577344179153442,
                0.1757734715938568,
                0.175773486495018
            ],
            "translation" : [
                0,
                0.22278912365436554,
                0
            ]
        },
        {
            "mesh" : 3,
            "name" : "Leg",
            "rotation" : [
                0,
                0,
                -0.026824835687875748,
                0.999640166759491
            ],
            "scale" : [
                -0.2330639362335205,
                -0.2330639362335205,
                -0.10670632123947144
            ],
            "translation" : [
                -0.013373893685638905,
                0.2728250324726105,
                0
            ]
        },
        {
            "mesh" : 4,
            "name" : "Face",
            "rotation" : [
                0,
                0,
                0.2120324969291687,
                0.9772626161575317
            ],
            "scale" : [
                0.4113902151584625,
                0.355633020401001,
                0.47436049580574036
            ],
            "translation" : [
                -0.16769616305828094,
                1.770963191986084,
                0
            ]
        },
        {
            "mesh" : 5,
            "name" : "L eye",
            "rotation" : [
                -0.13566213846206665,
                -0.005471309181302786,
                0.21705174446105957,
                0.9666718244552612
            ],
            "scale" : [
                0.07170875370502472,
                0.07152462750673294,
                0.04724878445267677
            ],
            "translation" : [
                0.1747485101222992,
                1.9995931386947632,
                -0.245221346616745
            ]
        },
        {
            "mesh" : 6,
            "name" : "R eye",
            "rotation" : [
                0.1755722314119339,
                0.0070808962918818,
                0.21567177772521973,
                0.9605258703231812
            ],
            "scale" : [
                0.07170875370502472,
                0.07152462750673294,
                0.04724878445267677
            ],
            "translation" : [
                0.1747485101222992,
                1.9995931386947632,
                0.21906688809394836
            ]
        },
        {
            "mesh" : 7,
            "name" : "Mouth",
            "rotation" : [
                0,
                0,
                0.23531340062618256,
                0.9719195365905762
            ],
            "scale" : [
                0.14095905423164368,
                0.08449973165988922,
                0.3933316171169281
            ],
            "translation" : [
                0.16288995742797852,
                1.7375894784927368,
                -0.009259692393243313
            ]
        }
    ],
    "animations" : [
        {
            "channels" : [
                {
                    "sampler" : 0,
                    "target" : {
                        "node" : 7,
                        "path" : "scale"
                    }
                },
                {
                    "sampler" : 1,
                    "target" : {
                        "node" : 7,
                        "path" : "translation"
                    }
                },
                {
                    "sampler" : 2,
                    "target" : {
                        "node" : 7,
                        "path" : "rotation"
                    }
                }
            ],
            "name" : "speak",
            "samplers" : [
                {
                    "input" : 23,
                    "interpolation" : "LINEAR",
                    "output" : 24
                },
                {
                    "input" : 25,
                    "interpolation" : "STEP",
                    "output" : 26
                },
                {
                    "input" : 25,
                    "interpolation" : "STEP",
                    "output" : 27
                }
            ]
        }
    ],
    "materials" : [
        {
            "doubleSided" : true,
            "name" : "Silver",
            "pbrMetallicRoughness" : {
                "baseColorTexture" : {
                    "index" : 0
                },
                "metallicFactor" : 0,
                "roughnessFactor" : 0.5
            }
        },
        {
            "doubleSided" : true,
            "name" : "Black",
            "pbrMetallicRoughness" : {
                "metallicFactor" : 0,
                "roughnessFactor" : 0.5
            }
        },
        {
            "doubleSided" : true,
            "name" : "Screen",
            "pbrMetallicRoughness" : {
                "baseColorTexture" : {
                    "index" : 1
                },
                "metallicFactor" : 0,
                "roughnessFactor" : 0.5
            }
        },
        {
            "doubleSided" : true,
            "name" : "White",
            "pbrMetallicRoughness" : {
                "baseColorTexture" : {
                    "index" : 2
                },
                "metallicFactor" : 0,
                "roughnessFactor" : 0.5
            }
        }
    ],
    "meshes" : [
        {
            "name" : "Cube",
            "primitives" : [
                {
                    "attributes" : {
                        "POSITION" : 0,
                        "TEXCOORD_0" : 1
                    },
                    "indices" : 2,
                    "material" : 0
                }
            ]
        },
        {
            "name" : "Mesh",
            "primitives" : [
                {
                    "attributes" : {
                        "POSITION" : 3,
                        "TEXCOORD_0" : 4
                    },
                    "indices" : 5,
                    "material" : 0
                }
            ]
        },
        {
            "name" : "Torus.001",
            "primitives" : [
                {
                    "attributes" : {
                        "POSITION" : 6,
                        "TEXCOORD_0" : 7
                    },
                    "indices" : 8,
                    "material" : 1
                }
            ]
        },
        {
            "name" : "Cube.002",
            "primitives" : [
                {
                    "attributes" : {
                        "POSITION" : 9,
                        "TEXCOORD_0" : 10
                    },
                    "indices" : 11,
                    "material" : 0
                }
            ]
        },
        {
            "name" : "Cube.004",
            "primitives" : [
                {
                    "attributes" : {
                        "POSITION" : 12,
                        "TEXCOORD_0" : 13
                    },
                    "indices" : 14,
                    "material" : 2
                }
            ]
        },
        {
            "name" : "Mesh",
            "primitives" : [
                {
                    "attributes" : {
                        "POSITION" : 15,
                        "TEXCOORD_0" : 16
                    },
                    "indices" : 17,
                    "material" : 1
                }
            ]
        },
        {
            "name" : "Mesh",
            "primitives" : [
                {
                    "attributes" : {
                        "POSITION" : 18,
                        "TEXCOORD_0" : 19
                    },
                    "indices" : 17,
                    "material" : 1
                }
            ]
        },
        {
            "name" : "Torus.003",
            "primitives" : [
                {
                    "attributes" : {
                        "POSITION" : 20,
                        "TEXCOORD_0" : 21
                    },
                    "indices" : 22,
                    "material" : 3
                }
            ]
        }
    ],
    "textures" : [
        {
            "sampler" : 0,
            "source" : 0
        },
        {
            "sampler" : 0,
            "source" : 1
        },
        {
            "sampler" : 0,
            "source" : 2
        }
    ],
    "images" : [
        {
            "bufferView" : 3,
            "mimeType" : "image/jpeg",
            "name" : "silver"
        },
        {
            "bufferView" : 16,
            "mimeType" : "image/jpeg",
            "name" : "blue"
        },
        {
            "bufferView" : 25,
            "mimeType" : "image/jpeg",
            "name" : "white"
        }
    ],
    "accessors" : [
        {
            "bufferView" : 0,
            "componentType" : 5126,
            "count" : 784,
            "max" : [
                0.8493215441703796,
                1.0474913120269775,
                1.261364221572876
            ],
            "min" : [
                -1,
                -0.926652193069458,
                -1.2709665298461914
            ],
            "type" : "VEC3"
        },
        {
            "bufferView" : 1,
            "componentType" : 5126,
            "count" : 784,
            "type" : "VEC2"
        },
        {
            "bufferView" : 2,
            "componentType" : 5123,
            "count" : 4032,
            "type" : "SCALAR"
        },
        {
            "bufferView" : 4,
            "componentType" : 5126,
            "count" : 441,
            "max" : [
                1,
                1,
                1
            ],
            "min" : [
                -1,
                -1,
                -1
            ],
            "type" : "VEC3"
        },
        {
            "bufferView" : 5,
            "componentType" : 5126,
            "count" : 441,
            "type" : "VEC2"
        },
        {
            "bufferView" : 6,
            "componentType" : 5123,
            "count" : 2304,
            "type" : "SCALAR"
        },
        {
            "bufferView" : 7,
            "componentType" : 5126,
            "count" : 637,
            "max" : [
                1.25,
                0.25,
                1.25
            ],
            "min" : [
                -1.25,
                -0.25,
                -1.25
            ],
            "type" : "VEC3"
        },
        {
            "bufferView" : 8,
            "componentType" : 5126,
            "count" : 637,
            "type" : "VEC2"
        },
        {
            "bufferView" : 9,
            "componentType" : 5123,
            "count" : 3456,
            "type" : "SCALAR"
        },
        {
            "bufferView" : 10,
            "componentType" : 5126,
            "count" : 1242,
            "max" : [
                1.340050220489502,
                0.5850774049758911,
                1.3400499820709229
            ],
            "min" : [
                -1.3400499820709229,
                -0.8223446011543274,
                -1.3400499820709229
            ],
            "type" : "VEC3"
        },
        {
            "bufferView" : 11,
            "componentType" : 5126,
            "count" : 1242,
            "type" : "VEC2"
        },
        {
            "bufferView" : 12,
            "componentType" : 5123,
            "count" : 6144,
            "type" : "SCALAR"
        },
        {
            "bufferView" : 13,
            "componentType" : 5126,
            "count" : 916,
            "max" : [
                1.0000001192092896,
                1,
                1.285233736038208
            ],
            "min" : [
                -1,
                -1,
                -1.295287847518921
            ],
            "type" : "VEC3"
        },
        {
            "bufferView" : 14,
            "componentType" : 5126,
            "count" : 916,
            "type" : "VEC2"
        },
        {
            "bufferView" : 15,
            "componentType" : 5123,
            "count" : 4608,
            "type" : "SCALAR"
        },
        {
            "bufferView" : 17,
            "componentType" : 5126,
            "count" : 229,
            "max" : [
                1,
                0.8866666555404663,
                0.8866666555404663
            ],
            "min" : [
                -0.8123458623886108,
                -0.8866667747497559,
                -0.8866666555404663
            ],
            "type" : "VEC3"
        },
        {
            "bufferView" : 18,
            "componentType" : 5126,
            "count" : 229,
            "type" : "VEC2"
        },
        {
            "bufferView" : 19,
            "componentType" : 5123,
            "count" : 960,
            "type" : "SCALAR"
        },
        {
            "bufferView" : 20,
            "componentType" : 5126,
            "count" : 229,
            "max" : [
                1,
                0.8866666555404663,
                0.8866666555404663
            ],
            "min" : [
                -0.8123458623886108,
                -0.8866667747497559,
                -0.8866666555404663
            ],
            "type" : "VEC3"
        },
        {
            "bufferView" : 21,
            "componentType" : 5126,
            "count" : 229,
            "type" : "VEC2"
        },
        {
            "bufferView" : 22,
            "componentType" : 5126,
            "count" : 2425,
            "max" : [
                1.25,
                0.25,
                1.25
            ],
            "min" : [
                -1.25,
                -0.25,
                -1.25
            ],
            "type" : "VEC3"
        },
        {
            "bufferView" : 23,
            "componentType" : 5126,
            "count" : 2425,
            "type" : "VEC2"
        },
        {
            "bufferView" : 24,
            "componentType" : 5123,
            "count" : 13824,
            "type" : "SCALAR"
        },
        {
            "bufferView" : 26,
            "componentType" : 5126,
            "count" : 11,
            "max" : [
                0.4166666666666667
            ],
            "min" : [
                0
            ],
            "type" : "SCALAR"
        },
        {
            "bufferView" : 27,
            "componentType" : 5126,
            "count" : 11,
            "type" : "VEC3"
        },
        {
            "bufferView" : 28,
            "componentType" : 5126,
            "count" : 1,
            "max" : [
                0.20833333333333334
            ],
            "min" : [
                0.20833333333333334
            ],
            "type" : "SCALAR"
        },
        {
            "bufferView" : 29,
            "componentType" : 5126,
            "count" : 1,
            "type" : "VEC3"
        },
        {
            "bufferView" : 30,
            "componentType" : 5126,
            "count" : 1,
            "type" : "VEC4"
        }
    ],
    "bufferViews" : [
        {
            "buffer" : 0,
            "byteLength" : 9408,
            "byteOffset" : 0
        },
        {
            "buffer" : 0,
            "byteLength" : 6272,
            "byteOffset" : 9408
        },
        {
            "buffer" : 0,
            "byteLength" : 8064,
            "byteOffset" : 15680
        },
        {
            "buffer" : 0,
            "byteLength" : 1665,
            "byteOffset" : 23744
        },
        {
            "buffer" : 0,
            "byteLength" : 5292,
            "byteOffset" : 25412
        },
        {
            "buffer" : 0,
            "byteLength" : 3528,
            "byteOffset" : 30704
        },
        {
            "buffer" : 0,
            "byteLength" : 4608,
            "byteOffset" : 34232
        },
        {
            "buffer" : 0,
            "byteLength" : 7644,
            "byteOffset" : 38840
        },
        {
            "buffer" : 0,
            "byteLength" : 5096,
            "byteOffset" : 46484
        },
        {
            "buffer" : 0,
            "byteLength" : 6912,
            "byteOffset" : 51580
        },
        {
            "buffer" : 0,
            "byteLength" : 14904,
            "byteOffset" : 58492
        },
        {
            "buffer" : 0,
            "byteLength" : 9936,
            "byteOffset" : 73396
        },
        {
            "buffer" : 0,
            "byteLength" : 12288,
            "byteOffset" : 83332
        },
        {
            "buffer" : 0,
            "byteLength" : 10992,
            "byteOffset" : 95620
        },
        {
            "buffer" : 0,
            "byteLength" : 7328,
            "byteOffset" : 106612
        },
        {
            "buffer" : 0,
            "byteLength" : 9216,
            "byteOffset" : 113940
        },
        {
            "buffer" : 0,
            "byteLength" : 1668,
            "byteOffset" : 123156
        },
        {
            "buffer" : 0,
            "byteLength" : 2748,
            "byteOffset" : 124824
        },
        {
            "buffer" : 0,
            "byteLength" : 1832,
            "byteOffset" : 127572
        },
        {
            "buffer" : 0,
            "byteLength" : 1920,
            "byteOffset" : 129404
        },
        {
            "buffer" : 0,
            "byteLength" : 2748,
            "byteOffset" : 131324
        },
        {
            "buffer" : 0,
            "byteLength" : 1832,
            "byteOffset" : 134072
        },
        {
            "buffer" : 0,
            "byteLength" : 29100,
            "byteOffset" : 135904
        },
        {
            "buffer" : 0,
            "byteLength" : 19400,
            "byteOffset" : 165004
        },
        {
            "buffer" : 0,
            "byteLength" : 27648,
            "byteOffset" : 184404
        },
        {
            "buffer" : 0,
            "byteLength" : 1665,
            "byteOffset" : 212052
        },
        {
            "buffer" : 0,
            "byteLength" : 44,
            "byteOffset" : 213720
        },
        {
            "buffer" : 0,
            "byteLength" : 132,
            "byteOffset" : 213764
        },
        {
            "buffer" : 0,
            "byteLength" : 4,
            "byteOffset" : 213896
        },
        {
            "buffer" : 0,
            "byteLength" : 12,
            "byteOffset" : 213900
        },
        {
            "buffer" : 0,
            "byteLength" : 16,
            "byteOffset" : 213912
        }
    ],
    "samplers" : [
        {
            "magFilter" : 9729,
            "minFilter" : 9987
        }
    ],
    "buffers" : [
        {
            "byteLength" : 213928,
            "uri" : "data:application/octet-stream;base64,"
        }
    ]
}
