{
    "asset" : {
        "generator" : "Khronos glTF Blender I/O v1.8.19",
        "version" : "2.0"
    },
    "scene" : 0,
    "scenes" : [
        {
            "name" : "Scene",
            "nodes" : [
                0,
                1,
                2,
                3,
                4,
                5,
                6,
                7
            ]
        }
    ],
    "nodes" : [
        {
            "mesh" : 0,
            "name" : "Head",
            "rotation" : [
                0,
                0,
                0.08296854048967361,
                0.9965521693229675
            ],
            "scale" : [
                0.5433521866798401,
                0.46970972418785095,
                0.6265214681625366
            ],
            "translation" : [
                0.019944816827774048,
                1.7811163663864136,
                0
            ]
        },
        {
            "mesh" : 1,
            "name" : "body",
            "rotation" : [
                0,
                0,
                -0.1326107680797577,
                0.991168200969696
            ],
            "scale" : [
                0.40559130907058716,
                0.6496414542198181,
                0.5816407203674316
            ],
            "translation" : [
                0,
                0.936072826385498,
                0
            ]
        },
        {
            "mesh" : 2,
            "name" : "wheel",
            "rotation" : [
                -0.7071067094802856,
                0,
                0,
                0.7071068286895752
            ],
            "scale" : [
                0.17577345669269562,
                0.17577345669269562,
                0.17577345669269562
            ],
            "translation" : [
                0,
                0.22278912365436554,
                0
            ]
        },
        {
            "mesh" : 3,
            "name" : "Leg",
            "scale" : [
                -0.2330639362335205,
                -0.2330639362335205,
                -0.10670632123947144
            ],
            "translation" : [
                0,
                0.27458152174949646,
                0
            ]
        },
        {
            "mesh" : 4,
            "name" : "Face",
            "rotation" : [
                0,
                0,
                0.08296854048967361,
                0.9965521693229675
            ],
            "scale" : [
                0.4113902151584625,
                0.355633020401001,
                0.47436049580574036
            ],
            "translation" : [
                0.019944816827774048,
                1.7811163663864136,
                0
            ]
        },
        {
            "mesh" : 5,
            "name" : "L eye",
            "rotation" : [
                -0.1352194845676422,
                0.012241114862263203,
                0.08932420611381531,
                0.9867052435874939
            ],
            "scale" : [
                0.07170875370502472,
                0.07152462750673294,
                0.04724878445267677
            ],
            "translation" : [
                0.373988538980484,
                1.9439902305603027,
                -0.245221346616745
            ]
        },
        {
            "mesh" : 6,
            "name" : "R eye",
            "rotation" : [
                0.17499931156635284,
                -0.015842294320464134,
                0.08875628560781479,
                0.980431854724884
            ],
            "scale" : [
                0.07170875370502472,
                0.07152462750673294,
                0.047248780727386475
            ],
            "translation" : [
                0.373988538980484,
                1.9439902305603027,
                0.21906688809394836
            ]
        },
        {
            "mesh" : 7,
            "name" : "Mouth",
            "rotation" : [
                0,
                0,
                0.10674696415662766,
                0.9942862391471863
            ],
            "scale" : [
                0.14095906913280487,
                0.08449973165988922,
                0.3933316171169281
            ],
            "translation" : [
                0.31381505727767944,
                1.7062712907791138,
                -0.009259692393243313
            ]
        }
    ],
    "animations" : [
        {
            "channels" : [
                {
                    "sampler" : 0,
                    "target" : {
                        "node" : 7,
                        "path" : "scale"
                    }
                },
                {
                    "sampler" : 1,
                    "target" : {
                        "node" : 7,
                        "path" : "translation"
                    }
                },
                {
                    "sampler" : 2,
                    "target" : {
                        "node" : 7,
                        "path" : "rotation"
                    }
                }
            ],
            "name" : "speak",
            "samplers" : [
                {
                    "input" : 23,
                    "interpolation" : "LINEAR",
                    "output" : 24
                },
                {
                    "input" : 25,
                    "interpolation" : "STEP",
                    "output" : 26
                },
                {
                    "input" : 25,
                    "interpolation" : "STEP",
                    "output" : 27
                }
            ]
        }
    ],
    "materials" : [
        {
            "doubleSided" : true,
            "name" : "Silver",
            "pbrMetallicRoughness" : {
                "baseColorTexture" : {
                    "index" : 0
                },
                "metallicFactor" : 0,
                "roughnessFactor" : 0.5
            }
        },
        {
            "doubleSided" : true,
            "name" : "Black",
            "pbrMetallicRoughness" : {
                "baseColorTexture" : {
                    "index" : 1
                },
                "metallicFactor" : 0,
                "roughnessFactor" : 0.5
            }
        },
        {
            "doubleSided" : true,
            "name" : "Screen",
            "pbrMetallicRoughness" : {
                "baseColorTexture" : {
                    "index" : 2
                },
                "metallicFactor" : 0,
                "roughnessFactor" : 0.5
            }
        },
        {
            "doubleSided" : true,
            "name" : "White",
            "pbrMetallicRoughness" : {
                "baseColorTexture" : {
                    "index" : 3
                },
                "metallicFactor" : 0,
                "roughnessFactor" : 0.5
            }
        }
    ],
    "meshes" : [
        {
            "name" : "Cube",
            "primitives" : [
                {
                    "attributes" : {
                        "POSITION" : 0,
                        "TEXCOORD_0" : 1
                    },
                    "indices" : 2,
                    "material" : 0
                }
            ]
        },
        {
            "name" : "Mesh",
            "primitives" : [
                {
                    "attributes" : {
                        "POSITION" : 3,
                        "TEXCOORD_0" : 4
                    },
                    "indices" : 5,
                    "material" : 0
                }
            ]
        },
        {
            "name" : "Torus.001",
            "primitives" : [
                {
                    "attributes" : {
                        "POSITION" : 6,
                        "TEXCOORD_0" : 7
                    },
                    "indices" : 8,
                    "material" : 1
                }
            ]
        },
        {
            "name" : "Mesh",
            "primitives" : [
                {
                    "attributes" : {
                        "POSITION" : 9,
                        "TEXCOORD_0" : 10
                    },
                    "indices" : 11,
                    "material" : 0
                }
            ]
        },
        {
            "name" : "Mesh",
            "primitives" : [
                {
                    "attributes" : {
                        "POSITION" : 12,
                        "TEXCOORD_0" : 13
                    },
                    "indices" : 14,
                    "material" : 2
                }
            ]
        },
        {
            "name" : "Mesh",
            "primitives" : [
                {
                    "attributes" : {
                        "POSITION" : 15,
                        "TEXCOORD_0" : 16
                    },
                    "indices" : 17,
                    "material" : 1
                }
            ]
        },
        {
            "name" : "Mesh",
            "primitives" : [
                {
                    "attributes" : {
                        "POSITION" : 18,
                        "TEXCOORD_0" : 19
                    },
                    "indices" : 17,
                    "material" : 1
                }
            ]
        },
        {
            "name" : "Torus.003",
            "primitives" : [
                {
                    "attributes" : {
                        "POSITION" : 20,
                        "TEXCOORD_0" : 21
                    },
                    "indices" : 22,
                    "material" : 3
                }
            ]
        }
    ],
    "textures" : [
        {
            "sampler" : 0,
            "source" : 0
        },
        {
            "sampler" : 0,
            "source" : 1
        },
        {
            "sampler" : 0,
            "source" : 2
        },
        {
            "sampler" : 0,
            "source" : 3
        }
    ],
    "images" : [
        {
            "bufferView" : 3,
            "mimeType" : "image/png",
            "name" : "silver"
        },
        {
            "bufferView" : 10,
            "mimeType" : "image/png",
            "name" : "black"
        },
        {
            "bufferView" : 17,
            "mimeType" : "image/png",
            "name" : "blue"
        },
        {
            "bufferView" : 26,
            "mimeType" : "image/png",
            "name" : "white"
        }
    ],
    "accessors" : [
        {
            "bufferView" : 0,
            "componentType" : 5126,
            "count" : 784,
            "max" : [
                0.8493215441703796,
                1.0474913120269775,
                1.261364221572876
            ],
            "min" : [
                -1,
                -0.926652193069458,
                -1.2709665298461914
            ],
            "type" : "VEC3"
        },
        {
            "bufferView" : 1,
            "componentType" : 5126,
            "count" : 784,
            "type" : "VEC2"
        },
        {
            "bufferView" : 2,
            "componentType" : 5123,
            "count" : 4032,
            "type" : "SCALAR"
        },
        {
            "bufferView" : 4,
            "componentType" : 5126,
            "count" : 441,
            "max" : [
                1,
                1,
                1
            ],
            "min" : [
                -1,
                -1,
                -1
            ],
            "type" : "VEC3"
        },
        {
            "bufferView" : 5,
            "componentType" : 5126,
            "count" : 441,
            "type" : "VEC2"
        },
        {
            "bufferView" : 6,
            "componentType" : 5123,
            "count" : 2304,
            "type" : "SCALAR"
        },
        {
            "bufferView" : 7,
            "componentType" : 5126,
            "count" : 637,
            "max" : [
                1.25,
                0.25,
                1.25
            ],
            "min" : [
                -1.25,
                -0.25,
                -1.25
            ],
            "type" : "VEC3"
        },
        {
            "bufferView" : 8,
            "componentType" : 5126,
            "count" : 637,
            "type" : "VEC2"
        },
        {
            "bufferView" : 9,
            "componentType" : 5123,
            "count" : 3456,
            "type" : "SCALAR"
        },
        {
            "bufferView" : 11,
            "componentType" : 5126,
            "count" : 621,
            "max" : [
                1.340050220489502,
                0.5850774049758911,
                1.3400499820709229
            ],
            "min" : [
                -1.3400499820709229,
                -0.5289489030838013,
                -1.3400499820709229
            ],
            "type" : "VEC3"
        },
        {
            "bufferView" : 12,
            "componentType" : 5126,
            "count" : 621,
            "type" : "VEC2"
        },
        {
            "bufferView" : 13,
            "componentType" : 5123,
            "count" : 3072,
            "type" : "SCALAR"
        },
        {
            "bufferView" : 14,
            "componentType" : 5126,
            "count" : 458,
            "max" : [
                1.0000001192092896,
                1,
                1.285233736038208
            ],
            "min" : [
                -1,
                -1,
                -1.295287847518921
            ],
            "type" : "VEC3"
        },
        {
            "bufferView" : 15,
            "componentType" : 5126,
            "count" : 458,
            "type" : "VEC2"
        },
        {
            "bufferView" : 16,
            "componentType" : 5123,
            "count" : 2304,
            "type" : "SCALAR"
        },
        {
            "bufferView" : 18,
            "componentType" : 5126,
            "count" : 229,
            "max" : [
                1,
                0.8866666555404663,
                0.8866666555404663
            ],
            "min" : [
                -0.8123458623886108,
                -0.8866667747497559,
                -0.8866666555404663
            ],
            "type" : "VEC3"
        },
        {
            "bufferView" : 19,
            "componentType" : 5126,
            "count" : 229,
            "type" : "VEC2"
        },
        {
            "bufferView" : 20,
            "componentType" : 5123,
            "count" : 960,
            "type" : "SCALAR"
        },
        {
            "bufferView" : 21,
            "componentType" : 5126,
            "count" : 229,
            "max" : [
                1,
                0.8866666555404663,
                0.8866666555404663
            ],
            "min" : [
                -0.8123458623886108,
                -0.8866667747497559,
                -0.8866666555404663
            ],
            "type" : "VEC3"
        },
        {
            "bufferView" : 22,
            "componentType" : 5126,
            "count" : 229,
            "type" : "VEC2"
        },
        {
            "bufferView" : 23,
            "componentType" : 5126,
            "count" : 2425,
            "max" : [
                1.25,
                0.25,
                1.25
            ],
            "min" : [
                -1.25,
                -0.25,
                -1.25
            ],
            "type" : "VEC3"
        },
        {
            "bufferView" : 24,
            "componentType" : 5126,
            "count" : 2425,
            "type" : "VEC2"
        },
        {
            "bufferView" : 25,
            "componentType" : 5123,
            "count" : 13824,
            "type" : "SCALAR"
        },
        {
            "bufferView" : 27,
            "componentType" : 5126,
            "count" : 21,
            "max" : [
                0.8333333333333334
            ],
            "min" : [
                0
            ],
            "type" : "SCALAR"
        },
        {
            "bufferView" : 28,
            "componentType" : 5126,
            "count" : 21,
            "type" : "VEC3"
        },
        {
            "bufferView" : 29,
            "componentType" : 5126,
            "count" : 1,
            "max" : [
                0.4166666666666667
            ],
            "min" : [
                0.4166666666666667
            ],
            "type" : "SCALAR"
        },
        {
            "bufferView" : 30,
            "componentType" : 5126,
            "count" : 1,
            "type" : "VEC3"
        },
        {
            "bufferView" : 31,
            "componentType" : 5126,
            "count" : 1,
            "type" : "VEC4"
        }
    ],
    "bufferViews" : [
        {
            "buffer" : 0,
            "byteLength" : 9408,
            "byteOffset" : 0
        },
        {
            "buffer" : 0,
            "byteLength" : 6272,
            "byteOffset" : 9408
        },
        {
            "buffer" : 0,
            "byteLength" : 8064,
            "byteOffset" : 15680
        },
        {
            "buffer" : 0,
            "byteLength" : 809,
            "byteOffset" : 23744
        },
        {
            "buffer" : 0,
            "byteLength" : 5292,
            "byteOffset" : 24556
        },
        {
            "buffer" : 0,
            "byteLength" : 3528,
            "byteOffset" : 29848
        },
        {
            "buffer" : 0,
            "byteLength" : 4608,
            "byteOffset" : 33376
        },
        {
            "buffer" : 0,
            "byteLength" : 7644,
            "byteOffset" : 37984
        },
        {
            "buffer" : 0,
            "byteLength" : 5096,
            "byteOffset" : 45628
        },
        {
            "buffer" : 0,
            "byteLength" : 6912,
            "byteOffset" : 50724
        },
        {
            "buffer" : 0,
            "byteLength" : 320,
            "byteOffset" : 57636
        },
        {
            "buffer" : 0,
            "byteLength" : 7452,
            "byteOffset" : 57956
        },
        {
            "buffer" : 0,
            "byteLength" : 4968,
            "byteOffset" : 65408
        },
        {
            "buffer" : 0,
            "byteLength" : 6144,
            "byteOffset" : 70376
        },
        {
            "buffer" : 0,
            "byteLength" : 5496,
            "byteOffset" : 76520
        },
        {
            "buffer" : 0,
            "byteLength" : 3664,
            "byteOffset" : 82016
        },
        {
            "buffer" : 0,
            "byteLength" : 4608,
            "byteOffset" : 85680
        },
        {
            "buffer" : 0,
            "byteLength" : 811,
            "byteOffset" : 90288
        },
        {
            "buffer" : 0,
            "byteLength" : 2748,
            "byteOffset" : 91100
        },
        {
            "buffer" : 0,
            "byteLength" : 1832,
            "byteOffset" : 93848
        },
        {
            "buffer" : 0,
            "byteLength" : 1920,
            "byteOffset" : 95680
        },
        {
            "buffer" : 0,
            "byteLength" : 2748,
            "byteOffset" : 97600
        },
        {
            "buffer" : 0,
            "byteLength" : 1832,
            "byteOffset" : 100348
        },
        {
            "buffer" : 0,
            "byteLength" : 29100,
            "byteOffset" : 102180
        },
        {
            "buffer" : 0,
            "byteLength" : 19400,
            "byteOffset" : 131280
        },
        {
            "buffer" : 0,
            "byteLength" : 27648,
            "byteOffset" : 150680
        },
        {
            "buffer" : 0,
            "byteLength" : 808,
            "byteOffset" : 178328
        },
        {
            "buffer" : 0,
            "byteLength" : 84,
            "byteOffset" : 179136
        },
        {
            "buffer" : 0,
            "byteLength" : 252,
            "byteOffset" : 179220
        },
        {
            "buffer" : 0,
            "byteLength" : 4,
            "byteOffset" : 179472
        },
        {
            "buffer" : 0,
            "byteLength" : 12,
            "byteOffset" : 179476
        },
        {
            "buffer" : 0,
            "byteLength" : 16,
            "byteOffset" : 179488
        }
    ],
    "samplers" : [
        {
            "magFilter" : 9729,
            "minFilter" : 9987
        }
    ],
    "buffers" : [
        {
            "byteLength" : 179504,
            "uri" : "data:application/octet-stream;base64,"
        }
    ]
}
